<svg xmlns="http://www.w3.org/2000/svg" viewBox="0 0 1200 630" role="img" aria-labelledby="t d"><title id="t">Ingeniería de software</title><desc id="d">Bloques de software conectados en una arquitectura digital.</desc><defs><linearGradient id="a" x2="1" y2="1"><stop stop-color="#14264d"/><stop offset="1" stop-color="#376b9c"/></linearGradient><linearGradient id="b"><stop stop-color="#75e2ef"/><stop offset="1" stop-color="#b2a5ff"/></linearGradient><filter id="blur"><feGaussianBlur stdDeviation="42"/></filter></defs><rect width="1200" height="630" fill="url(#a)"/><circle cx="950" cy="140" r="180" fill="#67c9ef" opacity=".28" filter="url(#blur)"/><g fill="none" stroke="url(#b)" stroke-width="6" opacity=".9"><path d="M300 170h230l95 95h245M300 465h230l95-95h245M530 170v295M625 265v105"/></g><g fill="#203c67" stroke="#b6efff" stroke-width="4"><rect x="180" y="120" width="240" height="100" rx="22"/><rect x="180" y="415" width="240" height="100" rx="22"/><rect x="505" y="245" width="240" height="130" rx="24"/><rect x="810" y="205" width="220" height="120" rx="24"/></g><g fill="#d9fbff"><circle cx="260" cy="170" r="11"/><circle cx="300" cy="170" r="11"/><circle cx="340" cy="170" r="11"/><path d="M840 250h160v10H840zm0 30h125v10H840z"/></g><path d="M0 550c190-80 310 44 485-8s300-14 415 28 207 47 300-9v69H0z" fill="#fff" opacity=".07"/></svg>
