<svg xmlns="http://www.w3.org/2000/svg" viewBox="0 0 1800 900" role="img" aria-labelledby="title desc">
  <title id="title">USF Tech Solutions</title>
  <desc id="desc">Ilustración abstracta de tecnología, datos y conexiones digitales.</desc>
  <defs>
    <linearGradient id="background" x1="0" y1="0" x2="1" y2="1"><stop stop-color="#101b3d"/><stop offset=".55" stop-color="#243b80"/><stop offset="1" stop-color="#6b4bcb"/></linearGradient>
    <linearGradient id="glow" x1="0" y1="0" x2="1" y2="1"><stop stop-color="#66e3ff" stop-opacity=".8"/><stop offset="1" stop-color="#bd9cff" stop-opacity=".12"/></linearGradient>
    <pattern id="grid" width="72" height="72" patternUnits="userSpaceOnUse"><path d="M72 0H0V72" fill="none" stroke="#d9e5ff" stroke-opacity=".08"/></pattern>
    <filter id="blur"><feGaussianBlur stdDeviation="48"/></filter>
  </defs>
  <path fill="url(#background)" d="M0 0h1800v900H0z"/><path fill="url(#grid)" d="M0 0h1800v900H0z"/>
  <circle cx="1375" cy="360" r="270" fill="#8a7cff" opacity=".32" filter="url(#blur)"/><circle cx="1570" cy="630" r="220" fill="#39c9e7" opacity=".25" filter="url(#blur)"/>
  <g fill="none" stroke="url(#glow)" stroke-width="3" opacity=".8"><path d="M1020 180 1240 300l210-70 175 155 100-25"/><path d="m1050 690 190-140 180 82 220-145 130 45"/><path d="m1240 300 0 250 210-320 15 402 160-247"/><path d="m1450 230 180 390"/></g>
  <g fill="#c5f4ff"><circle cx="1020" cy="180" r="8"/><circle cx="1240" cy="300" r="12"/><circle cx="1450" cy="230" r="9"/><circle cx="1625" cy="385" r="11"/><circle cx="1725" cy="360" r="7"/><circle cx="1050" cy="690" r="8"/><circle cx="1240" cy="550" r="10"/><circle cx="1420" cy="632" r="8"/><circle cx="1640" cy="487" r="12"/><circle cx="1770" cy="532" r="7"/></g>
  <g transform="translate(1290 315)"><path d="m0 82 150-86 150 86v174l-150 86L0 256z" fill="#162653" fill-opacity=".7" stroke="#d2f4ff" stroke-opacity=".75" stroke-width="6"/><path d="m0 82 150 88 150-88M150 170v172" fill="none" stroke="#72ddfa" stroke-width="5"/><path d="m82 39 68-39 68 39-68 40z" fill="#90efff" fill-opacity=".8"/></g>
  <path fill="#fff" fill-opacity=".06" d="M0 740c300-180 510 180 870 0s590-76 930 44v116H0z"/>
</svg>
